<svg width="129" height="40" viewBox="0 0 129 40" fill="none" xmlns="http://www.w3.org/2000/svg">
<g clip-path="url(#clip0_6505_911)">
<path d="M15.9451 21.4994L13.0694 20.1955L13.0802 19.1705C13.0802 18.4787 12.4717 17.8884 11.2548 17.4067C10.4109 17.0734 9.48732 16.9105 8.48044 16.9105C7.47356 16.9105 6.54998 17.0771 5.70609 17.4067C4.48913 17.8992 3.88066 18.486 3.88066 19.1705V32.5859C3.88066 33.2777 4.48913 33.8681 5.70609 34.3498C6.54998 34.683 7.47356 34.846 8.48044 34.846C9.48732 34.846 10.4109 34.6794 11.2548 34.3498C12.4717 33.8572 13.0802 33.2705 13.0802 32.5859V28.9677H13.2323L16.0972 30.3259V32.5859C16.0972 34.4259 14.9564 35.8167 12.6746 36.762C11.3997 37.2944 10.0016 37.5624 8.48406 37.5624C6.9665 37.5624 5.56845 37.2944 4.29355 36.762C2.01177 35.813 0.87088 34.4222 0.87088 32.5823V19.1669C0.87088 17.327 2.01177 15.9362 4.29355 14.9909C5.56845 14.4584 6.9665 14.1904 8.48406 14.1904C10.0016 14.1904 11.3997 14.4584 12.6746 14.9909C14.9564 15.9362 16.0972 17.327 16.0972 19.1669V21.4994H15.9451Z" fill="#81FE88"/>
<path d="M16.0936 30.3223C16.0936 30.3223 13.4967 29.1995 13.0694 27.9102L13.0802 29.4748L16.0936 30.3223Z" fill="#81FE88"/>
<path d="M13.0259 22.1043L15.9017 23.4082L15.8908 24.4332C15.8908 25.125 16.4993 25.7153 17.7162 26.197C18.5601 26.5303 19.4837 26.6932 20.4906 26.6932C21.4938 26.6932 22.421 26.5266 23.2649 26.197C24.4819 25.7045 25.0904 25.1177 25.0904 24.4332V11.0214C25.0904 10.3296 24.4819 9.73924 23.2649 9.25753C22.421 8.92431 21.4975 8.76133 20.4906 8.76133C19.4873 8.76133 18.5601 8.92793 17.7162 9.25753C16.4993 9.7501 15.8908 10.3368 15.8908 11.0214V14.6396H15.7387L12.8738 13.2814V11.0214C12.8738 9.18147 14.0147 7.79067 16.2965 6.84536C17.5714 6.31294 18.9694 6.04492 20.487 6.04492C22.0045 6.04492 23.4026 6.31294 24.6775 6.84536C26.9593 7.79067 28.1001 9.18147 28.1001 11.0214V24.4368C28.1001 26.2767 26.9593 27.6675 24.6775 28.6128C23.4026 29.1452 22.0045 29.4133 20.487 29.4133C18.9694 29.4133 17.5714 29.1452 16.2965 28.6128C14.0147 27.6675 12.8738 26.2767 12.8738 24.4368V22.1043H13.0259Z" fill="#81FE88"/>
<path d="M12.8774 13.2815C12.8774 13.2815 15.4743 14.4043 15.9017 15.6937L15.8908 14.129L12.8774 13.2815Z" fill="#81FE88"/>
<path d="M45.6481 31.8435V34.6178C45.6481 35.737 44.8549 36.6135 43.2686 37.24C42.4102 37.5696 41.4431 37.7362 40.3638 37.7362C39.2845 37.7362 38.3175 37.5696 37.4591 37.24C35.8727 36.6135 35.0795 35.737 35.0795 34.6178V26.3418C35.0795 25.2227 35.8727 24.3462 37.4591 23.7196C38.3175 23.39 39.2845 23.2234 40.3638 23.2234C41.4431 23.2234 42.4102 23.39 43.2686 23.7196C44.8549 24.3462 45.6481 25.2227 45.6481 26.3418V27.9717L43.2287 29.1162H43.102V26.7873C43.102 26.3636 42.8376 26.0448 42.3051 25.8311C41.7763 25.6174 41.128 25.5124 40.3638 25.5124C39.5996 25.5124 38.9513 25.6174 38.4225 25.8311C37.8937 26.0448 37.6257 26.3599 37.6257 26.7873V34.1723C37.6257 34.5961 37.8901 34.9148 38.4225 35.1285C38.9513 35.3422 39.5996 35.4472 40.3638 35.4472C41.128 35.4472 41.7763 35.3422 42.3051 35.1285C42.8339 34.9148 43.102 34.5997 43.102 34.1723V32.988L45.5214 31.8435H45.6481Z" fill="#E1E1E1"/>
<path d="M49.3388 34.6178V26.3418C49.3388 25.2227 50.132 24.3462 51.7184 23.7196C52.5768 23.39 53.5438 23.2234 54.6232 23.2234C55.7025 23.2234 56.6695 23.39 57.5279 23.7196C59.1143 24.3462 59.9075 25.2227 59.9075 26.3418V34.6178C59.9075 35.737 59.1143 36.6135 57.5279 37.24C56.6695 37.5696 55.7025 37.7362 54.6232 37.7362C53.5438 37.7362 52.5768 37.5696 51.7184 37.24C50.132 36.6135 49.3388 35.737 49.3388 34.6178ZM51.885 34.1723C51.885 34.5961 52.1494 34.9148 52.6818 35.1285C53.2142 35.3422 53.8589 35.4472 54.6232 35.4472C55.3874 35.4472 56.0357 35.3422 56.5645 35.1285C57.0933 34.9148 57.3613 34.5997 57.3613 34.1723V26.7873C57.3613 26.3636 57.0969 26.0448 56.5645 25.8311C56.0321 25.6174 55.3874 25.5124 54.6232 25.5124C53.8589 25.5124 53.2106 25.6174 52.6818 25.8311C52.153 26.0448 51.885 26.3599 51.885 26.7873V34.1723Z" fill="#E1E1E1"/>
<path d="M63.5945 37.9934V26.3418C63.5945 25.2046 64.3877 24.3317 65.9741 23.7196C66.8325 23.39 67.7995 23.2234 68.8789 23.2234C69.9582 23.2234 70.9252 23.39 71.7836 23.7196C73.37 24.3317 74.1632 25.2046 74.1632 26.3418V36.8453L71.7438 36.9032H71.617V26.7837C71.617 26.3599 71.3526 26.0412 70.8202 25.8275C70.2914 25.6138 69.6431 25.5088 68.8789 25.5088C68.1146 25.5088 67.4663 25.6138 66.9375 25.8275C66.4087 26.0412 66.1407 26.3563 66.1407 26.7837V36.8416L63.7213 37.9862H63.5945V37.9934Z" fill="#E1E1E1"/>
<path d="M77.8539 37.9934V26.3418C77.8539 25.2046 78.647 24.3317 80.2334 23.7196C81.0918 23.39 82.0588 23.2234 83.1382 23.2234C84.2175 23.2234 85.1845 23.39 86.0429 23.7196C87.6293 24.3317 88.4225 25.2046 88.4225 26.3418V36.8453L86.0031 37.9898H85.8763V26.7837C85.8763 26.3599 85.6119 26.0412 85.0795 25.8275C84.5507 25.6138 83.9024 25.5088 83.1382 25.5088C82.374 25.5088 81.7256 25.6138 81.1968 25.8275C80.668 26.0412 80.4 26.3563 80.4 26.7837V36.8416L77.9806 37.9862H77.8539V37.9934Z" fill="#E1E1E1"/>
<path d="M102.682 31.8435V34.6178C102.682 35.737 101.889 36.6135 100.302 37.24C99.4439 37.5696 98.4768 37.7362 97.3975 37.7362C96.3182 37.7362 95.3511 37.5696 94.4928 37.24C92.9064 36.6135 92.1132 35.737 92.1132 34.6178V26.3418C92.1132 25.2227 92.9064 24.3462 94.4928 23.7196C95.3511 23.39 96.3182 23.2234 97.3975 23.2234C98.4768 23.2234 99.4439 23.39 100.302 23.7196C101.889 24.3462 102.682 25.2227 102.682 26.3418V27.9717L94.6594 34.1397C94.6594 34.5743 94.9238 34.9003 95.4562 35.1176C95.985 35.3349 96.6333 35.4436 97.3975 35.4436C98.1617 35.4436 98.81 35.3386 99.3388 35.1249C99.8676 34.9112 100.136 34.5961 100.136 34.1687V32.9843L102.555 31.8398H102.682V31.8435ZM94.6594 31.4885L100.136 27.2871V26.9575C100.136 26.4758 99.8712 26.1173 99.3388 25.8782C98.8064 25.6392 98.1617 25.5197 97.3975 25.5197C96.6333 25.5197 95.985 25.6247 95.4562 25.8384C94.9274 26.0521 94.6594 26.3672 94.6594 26.7946V31.4921V31.4885Z" fill="#E1E1E1"/>
<path d="M116.938 31.8435V34.6178C116.938 35.737 116.144 36.6135 114.558 37.24C113.7 37.5696 112.733 37.7362 111.653 37.7362C110.574 37.7362 109.607 37.5696 108.748 37.24C107.162 36.6135 106.369 35.737 106.369 34.6178V26.3418C106.369 25.2227 107.162 24.3462 108.748 23.7196C109.607 23.39 110.574 23.2234 111.653 23.2234C112.733 23.2234 113.7 23.39 114.558 23.7196C116.144 24.3462 116.938 25.2227 116.938 26.3418V27.9717L114.518 29.1162H114.391V26.7873C114.391 26.3636 114.127 26.0448 113.595 25.8311C113.062 25.6174 112.417 25.5124 111.653 25.5124C110.889 25.5124 110.241 25.6174 109.712 25.8311C109.183 26.0448 108.915 26.3599 108.915 26.7873V34.1723C108.915 34.5961 109.179 34.9148 109.712 35.1285C110.244 35.3422 110.889 35.4472 111.653 35.4472C112.417 35.4472 113.066 35.3422 113.595 35.1285C114.123 34.9148 114.391 34.5997 114.391 34.1723V32.988L116.811 31.8435H116.938Z" fill="#E1E1E1"/>
<path d="M122.309 37.9934V25.7949H119.035V25.6681L120.067 23.4769H122.309V18.8916L124.728 17.7471H124.855V23.4769H128.129V23.6036L127.097 25.7949H124.855V36.8488L122.436 37.9934H122.309Z" fill="#E1E1E1"/>
<path d="M45.6445 14.0964V16.8707C45.6445 17.9899 44.8513 18.8664 43.2649 19.493C42.4065 19.8226 41.4395 19.9892 40.3602 19.9892C39.2809 19.9892 38.3138 19.8226 37.4554 19.493C35.8691 18.8664 35.0759 17.9899 35.0759 16.8707V8.59475C35.0759 7.47559 35.8691 6.5991 37.4554 5.97252C38.3138 5.64292 39.2809 5.47632 40.3602 5.47632C41.4395 5.47632 42.4065 5.64292 43.2649 5.97252C44.8513 6.5991 45.6445 7.47559 45.6445 8.59475V10.2246L43.2251 11.3691H43.0983V9.04024C43.0983 8.61648 42.8339 8.29776 42.3015 8.08407C41.7727 7.87038 41.1244 7.76534 40.3602 7.76534C39.596 7.76534 38.9477 7.87038 38.4189 8.08407C37.8901 8.29776 37.622 8.61286 37.622 9.04024V16.4253C37.622 16.849 37.8864 17.1677 38.4189 17.3814C38.9477 17.5951 39.596 17.7002 40.3602 17.7002C41.1244 17.7002 41.7727 17.5951 42.3015 17.3814C42.8303 17.1677 43.0983 16.8526 43.0983 16.4253V15.2409L45.5177 14.0964H45.6445Z" fill="#888888"/>
<path d="M49.3352 16.8707V8.59475C49.3352 7.47559 50.1284 6.5991 51.7148 5.97252C52.5732 5.64292 53.5402 5.47632 54.6195 5.47632C55.6988 5.47632 56.6659 5.64292 57.5243 5.97252C59.1106 6.5991 59.9038 7.47559 59.9038 8.59475V16.8707C59.9038 17.9899 59.1106 18.8664 57.5243 19.493C56.6659 19.8226 55.6988 19.9892 54.6195 19.9892C53.5402 19.9892 52.5732 19.8226 51.7148 19.493C50.1284 18.8664 49.3352 17.9899 49.3352 16.8707ZM51.8814 16.4253C51.8814 16.849 52.1458 17.1677 52.6782 17.3814C53.2106 17.5951 53.8553 17.7002 54.6195 17.7002C55.3837 17.7002 56.0321 17.5951 56.5608 17.3814C57.0896 17.1677 57.3577 16.8526 57.3577 16.4253V9.04024C57.3577 8.61648 57.0933 8.29776 56.5608 8.08407C56.0284 7.87038 55.3837 7.76534 54.6195 7.76534C53.8553 7.76534 53.207 7.87038 52.6782 8.08407C52.1494 8.29776 51.8814 8.61286 51.8814 9.04024V16.4253Z" fill="#888888"/>
<path d="M63.5909 16.8707V8.59471C63.5909 7.45744 64.3841 6.58457 65.9705 5.97247C66.8288 5.64288 67.7959 5.47628 68.8752 5.47628C69.8857 5.47628 70.7984 5.62115 71.6133 5.9109V1.14451L74.0327 0H74.1595V16.8707C74.1595 18.008 73.3663 18.8808 71.7799 19.4929C70.9216 19.8225 69.9545 19.9891 68.8752 19.9891C67.7959 19.9891 66.8288 19.8225 65.9705 19.4929C64.3841 18.8664 63.5909 17.9899 63.5909 16.8707ZM66.1371 16.4252C66.1371 16.849 66.4015 17.1677 66.9339 17.3814C67.4627 17.5951 68.111 17.7001 68.8752 17.7001C69.6394 17.7001 70.2877 17.5951 70.8165 17.3814C71.3453 17.1677 71.6133 16.8526 71.6133 16.4252V9.0402C71.6133 8.61644 71.3489 8.29772 70.8165 8.08403C70.2877 7.87034 69.6394 7.7653 68.8752 7.7653C68.111 7.7653 67.4627 7.87034 66.9339 8.08403C66.4051 8.29772 66.1371 8.61282 66.1371 9.0402V16.4252Z" fill="#888888"/>
<path d="M89.0563 14.0964V16.8707C89.0563 17.9899 88.2631 18.8664 86.6767 19.493C85.8183 19.8226 84.8513 19.9892 83.772 19.9892C82.6927 19.9892 81.7256 19.8226 80.8672 19.493C79.2809 18.8664 78.4877 17.9899 78.4877 16.8707V8.59475C78.4877 7.47559 79.2809 6.5991 80.8672 5.97252C81.7256 5.64292 82.6927 5.47632 83.772 5.47632C84.8513 5.47632 85.8183 5.64292 86.6767 5.97252C88.2631 6.5991 89.0563 7.47559 89.0563 8.59475V10.2246L81.0338 16.3927C81.0338 16.8273 81.2982 17.1532 81.8307 17.3706C82.3595 17.5879 83.0078 17.6965 83.772 17.6965C84.5362 17.6965 85.1845 17.5915 85.7133 17.3778C86.2421 17.1641 86.5101 16.849 86.5101 16.4216V15.2373L88.9295 14.0928H89.0563V14.0964ZM81.0338 13.7414L86.5101 9.54006V9.21047C86.5101 8.72876 86.2457 8.3702 85.7133 8.13115C85.1845 7.89211 84.5362 7.77259 83.772 7.77259C83.0078 7.77259 82.3595 7.87762 81.8307 8.09131C81.3019 8.305 81.0338 8.62011 81.0338 9.04749V13.7451V13.7414Z" fill="#888888"/>
<path d="M77.8611 36.2659V36.5592C77.8611 38.2326 74.1414 38.0696 74.1414 36.5592V36.2659H71.6025V37.0047C71.6025 38.1384 72.3957 39.0113 73.9784 39.6197C75.2859 40.1232 76.7093 40.1268 78.0277 39.6197C79.6104 39.0113 80.4 38.1384 80.4 37.0047V36.2659H77.8611Z" fill="#81FE88"/>
</g>
<defs>
<clipPath id="clip0_6505_911">
<rect width="127.258" height="40" fill="white" transform="translate(0.87088)"/>
</clipPath>
</defs>
</svg>
